<svg viewBox="0 0 1600 900" xmlns="http://www.w3.org/2000/svg" width="1600" height="900" style="background:#fff">
  <defs>
<!--Gradients-->
  <linearGradient id="bgGrad" x1="0%" y1="0%" x2="100%" y2="100%">
  <stop offset="0%" style="stop-color:#0f1224"/>
  <stop offset="50%" style="stop-color:#0b0e1d"/>
  <stop offset="100%" style="stop-color:#070913"/>
</linearGradient>
    <linearGradient id="cloudGrad" x1="0%" y1="0%" x2="100%" y2="100%">
      <stop offset="0%" style="stop-color:#6C63FF"/>
      <stop offset="100%" style="stop-color:#3ECFCF"/>
    </linearGradient>
    <linearGradient id="glowGrad" x1="0%" y1="0%" x2="100%" y2="0%">
      <stop offset="0%" style="stop-color:#6C63FF;stop-opacity:0.6"/>
      <stop offset="50%" style="stop-color:#A78BFA;stop-opacity:1"/>
      <stop offset="100%" style="stop-color:#6C63FF;stop-opacity:0.1"/>
    </linearGradient>
    <linearGradient id="shopGrad" x1="0%" y1="0%" x2="0%" y2="100%">
      <stop offset="0%" style="stop-color:#FF6B6B"/>
      <stop offset="100%" style="stop-color:#FF8E53"/>
    </linearGradient>
    <linearGradient id="schoolGrad" x1="0%" y1="0%" x2="0%" y2="100%">
      <stop offset="0%" style="stop-color:#4ECDC4"/>
      <stop offset="100%" style="stop-color:#44A8B3"/>
    </linearGradient>
    <linearGradient id="collegeGrad" x1="0%" y1="0%" x2="0%" y2="100%">
      <stop offset="0%" style="stop-color:#A78BFA"/>
      <stop offset="100%" style="stop-color:#7C3AED"/>
    </linearGradient>
    <linearGradient id="hospitalGrad" x1="0%" y1="0%" x2="0%" y2="100%">
      <stop offset="0%" style="stop-color:#34D399"/>
      <stop offset="100%" style="stop-color:#059669"/>
    </linearGradient>
    <linearGradient id="restaurantGrad" x1="0%" y1="0%" x2="0%" y2="100%">
      <stop offset="0%" style="stop-color:#FBBF24"/>
      <stop offset="100%" style="stop-color:#F59E0B"/>
    </linearGradient>
    <linearGradient id="crowd1" x1="0%" y1="0%" x2="0%" y2="100%">
      <stop offset="0%" style="stop-color:#FCA5A5"/>
      <stop offset="100%" style="stop-color:#F87171"/>
    </linearGradient>
    <linearGradient id="crowd2" x1="0%" y1="0%" x2="0%" y2="100%">
      <stop offset="0%" style="stop-color:#93C5FD"/>
      <stop offset="100%" style="stop-color:#3B82F6"/>
    </linearGradient>
    <linearGradient id="crowd3" x1="0%" y1="0%" x2="0%" y2="100%">
      <stop offset="0%" style="stop-color:#86EFAC"/>
      <stop offset="100%" style="stop-color:#22C55E"/>
    </linearGradient>
    <linearGradient id="crowd4" x1="0%" y1="0%" x2="0%" y2="100%">
      <stop offset="0%" style="stop-color:#FCD34D"/>
      <stop offset="100%" style="stop-color:#F59E0B"/>
    </linearGradient>
    <linearGradient id="crowd5" x1="0%" y1="0%" x2="0%" y2="100%">
      <stop offset="0%" style="stop-color:#C4B5FD"/>
      <stop offset="100%" style="stop-color:#8B5CF6"/>
    </linearGradient>
    <linearGradient id="arrowGrad" x1="0%" y1="0%" x2="100%" y2="0%">
      <stop offset="0%" style="stop-color:#6C63FF;stop-opacity:0"/>
      <stop offset="50%" style="stop-color:#6C63FF;stop-opacity:0.7"/>
      <stop offset="100%" style="stop-color:#3ECFCF;stop-opacity:1"/>
    </linearGradient>
    <filter id="glow">
      <feGaussianBlur stdDeviation="3" result="coloredBlur"/>
      <feMerge>
        <feMergeNode in="coloredBlur"/>
        <feMergeNode in="SourceGraphic"/>
      </feMerge>
    </filter>
    <filter id="softShadow" x="-10%" y="-10%" width="120%" height="130%">
      <feDropShadow dx="0" dy="4" stdDeviation="8" flood-color="#6C63FF" flood-opacity="0.15"/>
    </filter>
    <filter id="personShadow">
      <feDropShadow dx="0" dy="2" stdDeviation="3" flood-color="#000" flood-opacity="0.08"/>
    </filter>
<!--Glow animation for connection lines-->
    <style>
      @keyframes dash {
        to { stroke-dashoffset: -30; }
      }
      @keyframes pulse {
        0%, 100% { opacity: 0.5; }
        50% { opacity: 1; }
      }
      @keyframes float {
        0%, 100% { transform: translateY(0px); }
        50% { transform: translateY(-6px); }
      }
      .conn-line { animation: dash 1.5s linear infinite; }
      .cloud-group { animation: float 3s ease-in-out infinite; }
      .dot-pulse { animation: pulse 2s ease-in-out infinite; }
    </style>
  </defs>
<!--Background-->
  <rect width="1600" height="900" fill="url(#bgGrad)"/>
<!--Subtle grid pattern-->
  <pattern id="grid" width="40" height="40" patternUnits="userSpaceOnUse">
    <path d="M 40 0 L 0 0 0 40" fill="none" stroke="#6C63FF" stroke-width="0.3" opacity="0.15"/>
  </pattern>
  <rect width="1600" height="900" fill="url(#grid)"/>
<!--===================== LEFT SIDE: BUILDINGS =====================-->
<!--RETAIL SHOP (top-left)-->
  <g transform="translate(60, 120)" filter="url(#softShadow)">
<!--Building body-->
    <rect x="0" y="30" width="130" height="110" rx="8" fill="url(#shopGrad)"/>
<!--Roof-->
    <polygon points="65,0 -5,35 135,35" fill="#FF4757"/>
<!--Door-->
    <rect x="48" y="95" width="34" height="45" rx="4" fill="#fff" opacity="0.9"/>
    <circle cx="78" cy="120" r="3" fill="#FF6B6B"/>
<!--Windows-->
    <rect x="10" y="50" width="30" height="25" rx="4" fill="#fff" opacity="0.85"/>
    <rect x="90" y="50" width="30" height="25" rx="4" fill="#fff" opacity="0.85"/>
<!--Awning-->
    <rect x="-5" y="38" width="140" height="18" rx="3" fill="#FF4757"/>
    <line x1="5" y1="38" x2="5" y2="56" stroke="#fff" stroke-width="1.5" opacity="0.5"/>
    <line x1="25" y1="38" x2="25" y2="56" stroke="#fff" stroke-width="1.5" opacity="0.5"/>
    <line x1="45" y1="38" x2="45" y2="56" stroke="#fff" stroke-width="1.5" opacity="0.5"/>
    <line x1="65" y1="38" x2="65" y2="56" stroke="#fff" stroke-width="1.5" opacity="0.5"/>
    <line x1="85" y1="38" x2="85" y2="56" stroke="#fff" stroke-width="1.5" opacity="0.5"/>
    <line x1="105" y1="38" x2="105" y2="56" stroke="#fff" stroke-width="1.5" opacity="0.5"/>
    <line x1="125" y1="38" x2="125" y2="56" stroke="#fff" stroke-width="1.5" opacity="0.5"/>
<!--Sign-->
    <rect x="15" y="82" width="100" height="14" rx="3" fill="#fff" opacity="0.3"/>
    <text x="65" y="93" text-anchor="middle" font-family="Arial" font-size="8" fill="#fff" font-weight="bold">SHOP</text>
<!--Label-->
    <text x="65" y="160" text-anchor="middle" font-family="Arial" font-size="13" fill="#FF6B6B" font-weight="700">Retail Shop</text>
  </g>
<!--SCHOOL (2nd from top-left)-->
  <g transform="translate(60, 320)" filter="url(#softShadow)">
<!--Building body-->
    <rect x="0" y="20" width="130" height="120" rx="6" fill="url(#schoolGrad)"/>
<!--Roof edge-->
    <rect x="-5" y="15" width="140" height="15" rx="4" fill="#2EB8AF"/>
<!--Bell tower-->
    <rect x="50" y="-20" width="30" height="40" rx="4" fill="#2EB8AF"/>
    <polygon points="65,-35 45,-5 85,-5" fill="#1E9E96"/>
<!--Bell-->
    <circle cx="65" cy="5" r="5" fill="#FCD34D"/>
<!--Windows row 1-->
    <rect x="10" y="35" width="25" height="30" rx="3" fill="#fff" opacity="0.8"/>
    <rect x="52" y="35" width="25" height="30" rx="3" fill="#fff" opacity="0.8"/>
    <rect x="95" y="35" width="25" height="30" rx="3" fill="#fff" opacity="0.8"/>
<!--Windows row 2-->
    <rect x="10" y="80" width="25" height="25" rx="3" fill="#fff" opacity="0.8"/>
    <rect x="95" y="80" width="25" height="25" rx="3" fill="#fff" opacity="0.8"/>
<!--Door-->
    <rect x="48" y="95" width="35" height="45" rx="5" fill="#fff" opacity="0.9"/>
    <circle cx="79" cy="120" r="3" fill="#4ECDC4"/>
<!--Steps-->
    <rect x="38" y="136" width="55" height="5" rx="2" fill="#2EB8AF"/>
    <text x="65" y="160" text-anchor="middle" font-family="Arial" font-size="13" fill="#4ECDC4" font-weight="700">School</text>
  </g>
<!--COLLEGE (3rd)-->
  <g transform="translate(55, 530)" filter="url(#softShadow)">
<!--Main building-->
    <rect x="20" y="20" width="100" height="110" rx="6" fill="url(#collegeGrad)"/>
<!--Columns-->
    <rect x="28" y="30" width="10" height="100" rx="3" fill="#8B5CF6" opacity="0.7"/>
    <rect x="48" y="30" width="10" height="100" rx="3" fill="#8B5CF6" opacity="0.7"/>
    <rect x="82" y="30" width="10" height="100" rx="3" fill="#8B5CF6" opacity="0.7"/>
    <rect x="102" y="30" width="10" height="100" rx="3" fill="#8B5CF6" opacity="0.7"/>
<!--Pediment-->
    <polygon points="65,0 15,25 115,25" fill="#7C3AED"/>
<!--Dome-->
    <ellipse cx="65" cy="-2" rx="18" ry="10" fill="#6D28D9"/>
<!--Door-->
    <rect x="50" y="95" width="30" height="35" rx="4" fill="#fff" opacity="0.9"/>
<!--Windows-->
    <rect x="25" y="45" width="18" height="25" rx="3" fill="#fff" opacity="0.75"/>
    <rect x="99" y="45" width="18" height="25" rx="3" fill="#fff" opacity="0.75"/>
<!--Top banner-->
    <rect x="30" y="26" width="80" height="10" rx="2" fill="#5B21B6" opacity="0.5"/>
    <text x="65" y="155" text-anchor="middle" font-family="Arial" font-size="13" fill="#7C3AED" font-weight="700">College</text>
  </g>
<!--HOSPITAL (4th)-->
  <g transform="translate(200, 170)" filter="url(#softShadow)">
<!--Main building-->
    <rect x="5" y="20" width="120" height="120" rx="6" fill="url(#hospitalGrad)"/>
<!--Wing left-->
    <rect x="-15" y="60" width="30" height="80" rx="4" fill="#10B981"/>
<!--Wing right-->
    <rect x="115" y="60" width="30" height="80" rx="4" fill="#10B981"/>
<!--Cross sign-->
    <rect x="52" y="38" width="26" height="9" rx="3" fill="#fff"/>
    <rect x="57" y="33" width="16" height="20" rx="3" fill="#fff"/>
<!--Windows-->
    <rect x="15" y="50" width="22" height="20" rx="3" fill="#fff" opacity="0.8"/>
    <rect x="48" y="50" width="22" height="20" rx="3" fill="#fff" opacity="0.8"/>
    <rect x="90" y="50" width="22" height="20" rx="3" fill="#fff" opacity="0.8"/>
    <rect x="15" y="85" width="22" height="20" rx="3" fill="#fff" opacity="0.8"/>
    <rect x="90" y="85" width="22" height="20" rx="3" fill="#fff" opacity="0.8"/>
<!--Door-->
    <rect x="46" y="100" width="38" height="40" rx="4" fill="#fff" opacity="0.9"/>
    <rect x="62" y="136" width="6" height="4" rx="1" fill="#34D399"/>
    <text x="65" y="160" text-anchor="middle" font-family="Arial" font-size="13" fill="#10B981" font-weight="700">Hospital</text>
  </g>
<!--RESTAURANT (5th)-->
  <g transform="translate(200, 430)" filter="url(#softShadow)">
<!--Building-->
    <rect x="0" y="25" width="130" height="110" rx="8" fill="url(#restaurantGrad)"/>
<!--Roof with curve-->
    <path d="M -5,30 Q65,5 135,30 L135,28 Q65,2 -5,28 Z" fill="#D97706"/>
<!--Neon sign area-->
    <rect x="10" y="35" width="110" height="22" rx="4" fill="#B45309" opacity="0.5"/>
    <text x="65" y="50" text-anchor="middle" font-family="Arial" font-size="9" fill="#FFF" font-weight="bold" opacity="0.9">RESTAURANT</text>
<!--Windows-->
    <rect x="10" y="68" width="35" height="30" rx="4" fill="#fff" opacity="0.8"/>
    <rect x="85" y="68" width="35" height="30" rx="4" fill="#fff" opacity="0.8"/>
<!--Door-->
    <rect x="47" y="90" width="36" height="45" rx="5" fill="#fff" opacity="0.9"/>
<!--Planters-->
    <rect x="5" y="130" width="20" height="5" rx="2" fill="#92400E"/>
    <ellipse cx="15" cy="128" rx="12" ry="8" fill="#65A30D"/>
    <rect x="105" y="130" width="20" height="5" rx="2" fill="#92400E"/>
    <ellipse cx="115" cy="128" rx="12" ry="8" fill="#65A30D"/>
    <text x="65" y="158" text-anchor="middle" font-family="Arial" font-size="13" fill="#F59E0B" font-weight="700">Restaurant</text>
  </g>
<!--===================== CONNECTION LINES =====================-->
<!--Retail Shop to Cloud-->
  <path d="M 205,195 Q 450,200 740,440" fill="none" stroke="url(#glowGrad)" stroke-width="3" stroke-dasharray="8,6" opacity="0.85" class="conn-line" filter="url(#glow)"/>
<!--School to Cloud-->
  <path d="M 205,390 Q 450,390 740,450" fill="none" stroke="url(#glowGrad)" stroke-width="3" stroke-dasharray="8,6" opacity="0.85" class="conn-line" filter="url(#glow)" style="animation-delay:-0.3s"/>
<!--College to Cloud-->
  <path d="M 185,595 Q 450,560 740,470" fill="none" stroke="url(#glowGrad)" stroke-width="3" stroke-dasharray="8,6" opacity="0.85" class="conn-line" filter="url(#glow)" style="animation-delay:-0.6s"/>
<!--Hospital to Cloud-->
  <path d="M 345,265 Q 530,320 740,445" fill="none" stroke="url(#glowGrad)" stroke-width="3" stroke-dasharray="8,6" opacity="0.85" class="conn-line" filter="url(#glow)" style="animation-delay:-0.9s"/>
<!--Restaurant to Cloud-->
  <path d="M 340,500 Q 540,490 740,460" fill="none" stroke="url(#glowGrad)" stroke-width="3" stroke-dasharray="8,6" opacity="0.85" class="conn-line" filter="url(#glow)" style="animation-delay:-1.2s"/>
<!--Animated dots on lines-->
  <circle cx="0" cy="0" r="5" fill="#A78BFA" opacity="0.9" filter="url(#glow)" class="dot-pulse">
    <animateMotion dur="2s" repeatCount="indefinite" path="M 205,195 Q 450,200 740,440"/>
  </circle>
  <circle cx="0" cy="0" r="5" fill="#3ECFCF" opacity="0.9" filter="url(#glow)">
    <animateMotion dur="2.3s" repeatCount="indefinite" begin="-0.5s" path="M 205,390 Q 450,390 740,450"/>
  </circle>
  <circle cx="0" cy="0" r="5" fill="#A78BFA" opacity="0.9" filter="url(#glow)">
    <animateMotion dur="2.1s" repeatCount="indefinite" begin="-1s" path="M 185,595 Q 450,560 740,470"/>
  </circle>
  <circle cx="0" cy="0" r="5" fill="#3ECFCF" opacity="0.9" filter="url(#glow)">
    <animateMotion dur="1.9s" repeatCount="indefinite" begin="-0.3s" path="M 345,265 Q 530,320 740,445"/>
  </circle>
  <circle cx="0" cy="0" r="5" fill="#A78BFA" opacity="0.9" filter="url(#glow)">
    <animateMotion dur="2.4s" repeatCount="indefinite" begin="-1.5s" path="M 340,500 Q 540,490 740,460"/>
  </circle>
<!--===================== CENTER: CLOUD/WEB HUB =====================-->


<g transform="translate(790,350)">

  <!-- Glow -->
  <circle cx="80" cy="90" r="115" fill="#6C63FF" opacity="0.08"/>
  <circle cx="80" cy="90" r="95" fill="#6C63FF" opacity="0.16"/>

  <!-- Main circle -->
  <circle cx="80" cy="90" r="70" fill="url(#cloudGrad)" stroke="#ffffff" stroke-opacity="0.35" stroke-width="2"/>

  <!-- Inner glass -->
  <circle cx="80" cy="90" r="58" fill="#cfd7ff" opacity="0.25"/>

  <!-- Cloud icon -->
  <g transform="translate(35,55)">
    <ellipse cx="45" cy="30" rx="34" ry="22" fill="#f7f8ff" stroke="#6C63FF" stroke-opacity="0.35" stroke-width="1.2"/>
    <ellipse cx="25" cy="35" rx="18" ry="14" fill="#f7f8ff" stroke="#6C63FF" stroke-opacity="0.35" stroke-width="1.2"/>
    <ellipse cx="65" cy="35" rx="20" ry="14" fill="#f7f8ff" stroke="#6C63FF" stroke-opacity="0.35" stroke-width="1.2"/>

    <!-- network dots -->
    <circle cx="18" cy="48" r="4" fill="#6C63FF"/>
    <circle cx="45" cy="52" r="4" fill="#3ECFCF"/>
    <circle cx="72" cy="48" r="4" fill="#6C63FF"/>

    <!-- wifi arcs -->
    <path d="M 30,12 Q45,2 60,12" fill="none" stroke="#6C63FF" stroke-width="3" stroke-linecap="round"/>
    <path d="M 24,5 Q45,-6 66,5" fill="none" stroke="#3ECFCF" stroke-width="2.5" stroke-linecap="round"/>
  </g>

 <!-- Label -->
<text x="80" y="215" text-anchor="middle"
  font-family="Arial" font-size="22"
  fill="#e0e7ff"
  font-weight="900"
  style="text-shadow:0 2px 6px rgba(0,0,0,0.5)">
  Website
</text>

<text x="80" y="255" text-anchor="middle"
  font-family="Arial" font-size="20"
  fill="#a5b4fc"
  font-weight="700"
  style="text-shadow:0 2px 6px rgba(0,0,0,0.5)">
  Online Presence
</text>

</g>
  
<!--===================== RIGHT ARROWS FROM CLOUD TO CROWD =====================-->
  <path d="M 1000,450 Q 1100,440 1160,450" fill="none" stroke="url(#arrowGrad)" stroke-width="5" stroke-dasharray="10,6" opacity="0.9" class="conn-line" filter="url(#glow)"/>
  <path d="M 1000,420 Q 1100,380 1160,370" fill="none" stroke="url(#arrowGrad)" stroke-width="4" stroke-dasharray="8,5" opacity="0.8" class="conn-line" filter="url(#glow)" style="animation-delay:-0.4s"/>
  <path d="M 1000,475 Q 1100,510 1160,530" fill="none" stroke="url(#arrowGrad)" stroke-width="4" stroke-dasharray="8,5" opacity="0.8" class="conn-line" filter="url(#glow)" style="animation-delay:-0.8s"/>
<!--Arrow heads-->
  <polygon points="1165,443 1148,436 1148,450" fill="#3ECFCF" opacity="0.9"/>
  <polygon points="1163,362 1148,356 1149,369" fill="#6C63FF" opacity="0.9"/>
  <polygon points="1163,537 1148,524 1149,537" fill="#A78BFA" opacity="0.9"/>
<!--===================== RIGHT SIDE: CROWD =====================-->
<!--Growth arrow backdrop-->
  <path d="M 1180,660 Q 1350,500 1560,350" fill="none" stroke="#6C63FF" stroke-width="60" opacity="0.04" stroke-linecap="round"/>
<!--=== PERSON 1 - Woman with shopping bags ===-->
  <g transform="translate(1170, 380)" filter="url(#personShadow)">
<!--Body-->
    <ellipse cx="40" cy="130" rx="28" ry="40" fill="url(#crowd1)"/>
<!--Head-->
    <circle cx="40" cy="72" r="22" fill="#FDDCB5"/>
<!--Hair-->
    <ellipse cx="40" cy="58" rx="22" ry="14" fill="#92400E"/>
    <path d="M18,65 Q15,90 22,100" fill="none" stroke="#92400E" stroke-width="8" stroke-linecap="round"/>
    <path d="M62,65 Q65,90 58,100" fill="none" stroke="#92400E" stroke-width="8" stroke-linecap="round"/>
<!--Smile-->
    <path d="M30,80 Q40,90 50,80" fill="none" stroke="#E07B54" stroke-width="2.5" stroke-linecap="round"/>
<!--Eyes-->
    <circle cx="32" cy="73" r="3" fill="#5C3317"/>
    <circle cx="48" cy="73" r="3" fill="#5C3317"/>
<!--Arms-->
    <path d="M12,110 Q0,130 5,150" fill="none" stroke="#FCA5A5" stroke-width="12" stroke-linecap="round"/>
    <path d="M68,110 Q80,130 75,150" fill="none" stroke="#FCA5A5" stroke-width="12" stroke-linecap="round"/>
<!--Shopping bag left-->
    <rect x="-10" y="145" width="22" height="26" rx="4" fill="#6C63FF"/>
    <path d="M-5,145 Q0,135 5,145" fill="none" stroke="#fff" stroke-width="2"/>
<!--Shopping bag right-->
    <rect x="68" y="145" width="22" height="26" rx="4" fill="#F87171"/>
    <path d="M73,145 Q79,135 84,145" fill="none" stroke="#fff" stroke-width="2"/>
<!--Legs-->
    <rect x="22" y="165" width="14" height="40" rx="7" fill="#E2E8F0"/>
    <rect x="44" y="165" width="14" height="40" rx="7" fill="#E2E8F0"/>
<!--Shoes-->
    <ellipse cx="29" cy="207" rx="10" ry="5" fill="#7C3AED"/>
    <ellipse cx="51" cy="207" rx="10" ry="5" fill="#7C3AED"/>
<!--Happy star-->
    <text x="38" y="52" font-size="12">⭐</text>
  </g>
<!--=== PERSON 2 - Man with phone ===-->
  <g transform="translate(1270, 340)" filter="url(#personShadow)">
    <ellipse cx="40" cy="135" rx="26" ry="38" fill="url(#crowd2)"/>
    <circle cx="40" cy="70" r="22" fill="#DEB887"/>
<!--Short hair-->
    <ellipse cx="40" cy="55" rx="22" ry="12" fill="#1C1C1C"/>
    <rect x="18" y="55" width="44" height="10" rx="5" fill="#1C1C1C"/>
    <path d="M30,82 Q40,91 50,82" fill="none" stroke="#C68642" stroke-width="2.5" stroke-linecap="round"/>
    <circle cx="32" cy="72" r="3" fill="#1C1C1C"/>
    <circle cx="48" cy="72" r="3" fill="#1C1C1C"/>
<!--Phone in hand-->
    <path d="M65,105 Q80,110 78,140" fill="none" stroke="#93C5FD" stroke-width="12" stroke-linecap="round"/>
    <rect x="68" y="120" width="20" height="30" rx="4" fill="#1E3A8A"/>
    <rect x="70" y="122" width="16" height="24" rx="2" fill="#3B82F6" opacity="0.9"/>
<!--Screen glow-->
    <rect x="70" y="122" width="16" height="24" rx="2" fill="#60A5FA" opacity="0.5"/>
<!--Other arm-->
    <path d="M15,105 Q5,125 8,150" fill="none" stroke="#93C5FD" stroke-width="12" stroke-linecap="round"/>
    <rect x="22" y="170" width="14" height="38" rx="7" fill="#E2E8F0"/>
    <rect x="44" y="170" width="14" height="38" rx="7" fill="#E2E8F0"/>
    <ellipse cx="29" cy="210" rx="10" ry="5" fill="#1D4ED8"/>
    <ellipse cx="51" cy="210" rx="10" ry="5" fill="#1D4ED8"/>
<!--Notification-->
    <circle cx="85" cy="118" r="8" fill="#EF4444"/>
    <text x="85" y="122" text-anchor="middle" font-family="Arial" font-size="9" fill="#fff" font-weight="bold">!</text>
  </g>
<!--=== PERSON 3 - Woman with laptop ===-->
  <g transform="translate(1380, 370)" filter="url(#personShadow)">
    <ellipse cx="40" cy="130" rx="28" ry="40" fill="url(#crowd3)"/>
    <circle cx="40" cy="70" r="22" fill="#F5CBA7"/>
<!--Curly hair-->
    <circle cx="40" cy="52" r="18" fill="#2D1B00"/>
    <circle cx="23" cy="62" r="10" fill="#2D1B00"/>
    <circle cx="57" cy="62" r="10" fill="#2D1B00"/>
    <circle cx="22" cy="76" r="8" fill="#2D1B00"/>
    <circle cx="58" cy="76" r="8" fill="#2D1B00"/>
    <path d="M30,82 Q40,92 50,82" fill="none" stroke="#C68642" stroke-width="2.5" stroke-linecap="round"/>
    <circle cx="32" cy="72" r="3" fill="#2D1B00"/>
    <circle cx="48" cy="72" r="3" fill="#2D1B00"/>
<!--Laptop-->
    <path d="M5,115 Q-5,145 10,155" fill="none" stroke="#86EFAC" stroke-width="12" stroke-linecap="round"/>
    <rect x="-20" y="140" width="40" height="28" rx="4" fill="#1F2937"/>
    <rect x="-18" y="142" width="36" height="22" rx="2" fill="#10B981" opacity="0.9"/>
<!--Screen content-->
    <rect x="-15" y="144" width="20" height="3" rx="1" fill="#fff" opacity="0.6"/>
    <rect x="-15" y="150" width="15" height="2" rx="1" fill="#fff" opacity="0.4"/>
    <rect x="-15" y="155" width="25" height="2" rx="1" fill="#fff" opacity="0.4"/>
<!--Laptop base-->
    <rect x="-25" y="166" width="50" height="5" rx="2" fill="#374151"/>
<!--Other arm with shopping bag-->
    <path d="M72,115 Q82,140 78,160" fill="none" stroke="#86EFAC" stroke-width="12" stroke-linecap="round"/>
    <rect x="72" y="155" width="22" height="26" rx="4" fill="#FBBF24"/>
    <path d="M77,155 Q83,145 89,155" fill="none" stroke="#fff" stroke-width="2"/>
    <rect x="22" y="168" width="14" height="38" rx="7" fill="#D1FAE5"/>
    <rect x="44" y="168" width="14" height="38" rx="7" fill="#D1FAE5"/>
    <ellipse cx="29" cy="208" rx="10" ry="5" fill="#065F46"/>
    <ellipse cx="51" cy="208" rx="10" ry="5" fill="#065F46"/>
  </g>
<!--=== PERSON 4 - Boy with phone (smaller, back row) ===-->
  <g transform="translate(1200, 280)" filter="url(#personShadow)">
    <ellipse cx="30" cy="100" rx="20" ry="30" fill="url(#crowd4)"/>
    <circle cx="30" cy="52" r="16" fill="#FDDCB5"/>
    <ellipse cx="30" cy="40" rx="16" ry="10" fill="#B45309"/>
    <path d="M22,60 Q30,68 38,60" fill="none" stroke="#C68642" stroke-width="2" stroke-linecap="round"/>
    <circle cx="24" cy="54" r="2.5" fill="#5C3317"/>
    <circle cx="36" cy="54" r="2.5" fill="#5C3317"/>
    <path d="M45,80 Q55,90 52,108" fill="none" stroke="#FCD34D" stroke-width="9" stroke-linecap="round"/>
    <rect x="46" y="92" width="14" height="20" rx="3" fill="#1E3A8A"/>
    <rect x="48" y="94" width="10" height="16" rx="2" fill="#60A5FA"/>
    <path d="M15,80 Q5,100 8,115" fill="none" stroke="#FCD34D" stroke-width="9" stroke-linecap="round"/>
    <rect x="16" y="128" width="10" height="28" rx="5" fill="#E2E8F0"/>
    <rect x="34" y="128" width="10" height="28" rx="5" fill="#E2E8F0"/>
    <ellipse cx="21" cy="158" rx="8" ry="4" fill="#92400E"/>
    <ellipse cx="39" cy="158" rx="8" ry="4" fill="#92400E"/>
<!--Stars/hearts-->
    <text x="25" y="38" font-size="10">💫</text>
  </g>
<!--=== PERSON 5 - Elderly woman with bag ===-->
  <g transform="translate(1470, 350)" filter="url(#personShadow)">
    <ellipse cx="35" cy="125" rx="25" ry="36" fill="url(#crowd5)"/>
    <circle cx="35" cy="65" r="20" fill="#F4D9C0"/>
<!--White hair-->
    <ellipse cx="35" cy="50" rx="20" ry="12" fill="#E5E7EB"/>
    <path d="M15,58 Q12,80 18,90" fill="none" stroke="#E5E7EB" stroke-width="7" stroke-linecap="round"/>
    <path d="M55,58 Q58,80 52,90" fill="none" stroke="#E5E7EB" stroke-width="7" stroke-linecap="round"/>
    <path d="M27,75 Q35,83 43,75" fill="none" stroke="#C68642" stroke-width="2" stroke-linecap="round"/>
    <circle cx="28" cy="68" r="2.5" fill="#5C3317"/>
    <circle cx="42" cy="68" r="2.5" fill="#5C3317"/>
<!--Purse-->
    <path d="M58,105 Q72,120 68,145" fill="none" stroke="#C4B5FD" stroke-width="9" stroke-linecap="round"/>
    <rect x="62" y="140" width="26" height="22" rx="5" fill="#7C3AED"/>
    <rect x="66" y="137" width="18" height="7" rx="3" fill="none" stroke="#A78BFA" stroke-width="2"/>
<!--Other arm with phone-->
    <path d="M12,105 Q0,120 4,145" fill="none" stroke="#C4B5FD" stroke-width="9" stroke-linecap="round"/>
    <rect x="-5" y="138" width="14" height="20" rx="3" fill="#4C1D95"/>
    <rect x="-3" y="140" width="10" height="16" rx="2" fill="#A78BFA"/>
    <rect x="18" y="158" width="12" height="32" rx="6" fill="#EDE9FE"/>
    <rect x="40" y="158" width="12" height="32" rx="6" fill="#EDE9FE"/>
    <ellipse cx="24" cy="192" rx="9" ry="4" fill="#5B21B6"/>
    <ellipse cx="46" cy="192" rx="9" ry="4" fill="#5B21B6"/>
  </g>
<!--=== PERSON 6 - Young man back row ===-->
  <g transform="translate(1330, 280)" filter="url(#personShadow)">
    <ellipse cx="30" cy="100" rx="20" ry="32" fill="#60A5FA" opacity="0.9"/>
    <circle cx="30" cy="52" r="16" fill="#FDDCB5"/>
    <rect x="14" y="40" width="32" height="14" rx="7" fill="#111827"/>
    <path d="M22,61 Q30,69 38,61" fill="none" stroke="#C68642" stroke-width="2" stroke-linecap="round"/>
    <circle cx="23" cy="54" r="2.5" fill="#111827"/>
    <circle cx="37" cy="54" r="2.5" fill="#111827"/>
<!--Both hands up excited-->
    <path d="M10,82 Q-5,70 -2,55" fill="none" stroke="#93C5FD" stroke-width="9" stroke-linecap="round"/>
    <path d="M50,82 Q65,70 62,55" fill="none" stroke="#93C5FD" stroke-width="9" stroke-linecap="round"/>
    <rect x="16" y="130" width="10" height="28" rx="5" fill="#DBEAFE"/>
    <rect x="34" y="130" width="10" height="28" rx="5" fill="#DBEAFE"/>
    <ellipse cx="21" cy="160" rx="8" ry="4" fill="#1D4ED8"/>
    <ellipse cx="39" cy="160" rx="8" ry="4" fill="#1D4ED8"/>
<!--Confetti-->
    <circle cx="-5" cy="58" r="4" fill="#FCD34D"/>
    <circle cx="65" cy="52" r="4" fill="#F87171"/>
    <circle cx="70" cy="65" r="3" fill="#34D399"/>
    <circle cx="-10" cy="70" r="3" fill="#A78BFA"/>
  </g>
<!--=== PERSON 7 - Woman small right back ===-->
  <g transform="translate(1520, 295)" filter="url(#personShadow)">
    <ellipse cx="28" cy="95" rx="18" ry="28" fill="#FCA5A5" opacity="0.9"/>
    <circle cx="28" cy="48" r="15" fill="#F5CBA7"/>
    <path d="M13,44 Q28,30 43,44 Q43,60 28,65 Q13,60 13,44" fill="#D97706"/>
    <path d="M20,58 Q28,65 36,58" fill="none" stroke="#C68642" stroke-width="2" stroke-linecap="round"/>
    <circle cx="22" cy="51" r="2.5" fill="#5C3317"/>
    <circle cx="34" cy="51" r="2.5" fill="#5C3317"/>
<!--Shopping bags both hands-->
    <path d="M10,76 Q0,95 4,115" fill="none" stroke="#FCA5A5" stroke-width="8" stroke-linecap="round"/>
    <rect x="-8" y="110" width="18" height="22" rx="4" fill="#F97316"/>
    <path d="M-4,110 Q1,103 6,110" fill="none" stroke="#fff" stroke-width="1.5"/>
    <path d="M46,76 Q56,95 52,115" fill="none" stroke="#FCA5A5" stroke-width="8" stroke-linecap="round"/>
    <rect x="44" y="110" width="18" height="22" rx="4" fill="#8B5CF6"/>
    <path d="M48,110 Q53,103 58,110" fill="none" stroke="#fff" stroke-width="1.5"/>
    <rect x="16" y="122" width="10" height="25" rx="5" fill="#FEE2E2"/>
    <rect x="30" y="122" width="10" height="25" rx="5" fill="#FEE2E2"/>
    <ellipse cx="21" cy="149" rx="8" ry="4" fill="#C2410C"/>
    <ellipse cx="35" cy="149" rx="8" ry="4" fill="#C2410C"/>
  </g>
<!--=== PERSON 8 - Taller man far right ===-->
  <g transform="translate(1500, 460)" filter="url(#personShadow)">
    <ellipse cx="32" cy="140" rx="24" ry="44" fill="#34D399" opacity="0.9"/>
    <circle cx="32" cy="68" r="20" fill="#DEB887"/>
    <rect x="12" y="52" width="40" height="16" rx="8" fill="#1C1C1C"/>
    <path d="M24,80 Q32,88 40,80" fill="none" stroke="#C68642" stroke-width="2.5" stroke-linecap="round"/>
    <circle cx="25" cy="72" r="3" fill="#1C1C1C"/>
    <circle cx="39" cy="72" r="3" fill="#1C1C1C"/>
<!--Phone held up-->
    <path d="M52,95 Q68,90 66,68" fill="none" stroke="#86EFAC" stroke-width="11" stroke-linecap="round"/>
    <rect x="56" y="52" width="16" height="26" rx="4" fill="#111827"/>
    <rect x="58" y="54" width="12" height="22" rx="2" fill="#3B82F6"/>
<!--Camera icon on phone-->
    <circle cx="64" cy="65" r="6" fill="#60A5FA"/>
    <circle cx="64" cy="65" r="4" fill="#1E40AF"/>
<!--Other arm-->
    <path d="M12,95 Q-2,115 2,140" fill="none" stroke="#86EFAC" stroke-width="11" stroke-linecap="round"/>
<!--Shopping bag-->
    <rect x="-8" y="135" width="20" height="26" rx="4" fill="#FBBF24"/>
    <path d="M-4,135 Q2,125 8,135" fill="none" stroke="#fff" stroke-width="2"/>
    <rect x="18" y="180" width="12" height="36" rx="6" fill="#D1FAE5"/>
    <rect x="38" y="180" width="12" height="36" rx="6" fill="#D1FAE5"/>
    <ellipse cx="24" cy="218" rx="9" ry="4" fill="#065F46"/>
    <ellipse cx="44" cy="218" rx="9" ry="4" fill="#065F46"/>
  </g>
<!--===================== FLOATING ICONS & STATS =====================-->
<!--Growth badge-->
  <g transform="translate(1420, 250)">
    <rect x="0" y="0" width="110" height="44" rx="22" fill="#6C63FF" filter="url(#softShadow)"/>
    <text x="55" y="18" text-anchor="middle" font-family="Arial" font-size="11" fill="#fff" opacity="0.8">Customer Growth</text>
    <text x="55" y="35" text-anchor="middle" font-family="Arial" font-size="16" fill="#FCD34D" font-weight="900">+340% 📈</text>
  </g>
<!--Star rating bubble-->
  <g transform="translate(1170, 260)">
    <rect x="0" y="0" width="90" height="36" rx="18" fill="#fff" filter="url(#softShadow)"/>
    <text x="45" y="14" text-anchor="middle" font-family="Arial" font-size="9" fill="#6B7280">Rating</text>
    <text x="45" y="30" text-anchor="middle" font-family="Arial" font-size="14" fill="#F59E0B">★★★★★</text>
  </g>
<!--Revenue bubble-->
  <g transform="translate(1530, 265)">
    <rect x="0" y="0" width="80" height="36" rx="18" fill="#34D399" filter="url(#softShadow)"/>
    <text x="40" y="14" text-anchor="middle" font-family="Arial" font-size="9" fill="#fff" opacity="0.85">Revenue</text>
    <text x="40" y="30" text-anchor="middle" font-family="Arial" font-size="14" fill="#fff" font-weight="800">↑ 2x</text>
  </g>
<!--===================== GROUND / SHADOW =====================-->
<ellipse cx="800" cy="820" rx="780" ry="35" fill="#6C63FF" opacity="0.06"/>

<!--===================== TITLE TEXT =====================-->
<text x="800" y="60"
  text-anchor="middle"
  font-family="Georgia, serif"
  font-size="40"
  fill="#ffffff"
  font-weight="900"
  letter-spacing="0.6">
  Connecting Businesses Online
</text>

<text x="800" y="100"
  text-anchor="middle"
  font-family="Arial"
  font-size="20"
  fill="#aab0ff"
  font-weight="700"
  letter-spacing="1.2">
  Brings Massive Customer Growth
</text>

<!--Decorative underline-->
<rect x="560" y="112" width="480" height="4" rx="2" fill="url(#cloudGrad)" opacity="0.9"/>

<!--Bottom tagline-->
<text x="800" y="875"
  text-anchor="middle"
  font-family="Arial"
  font-size="15"
  fill="#c7cbe6"
  letter-spacing="2.2"
  font-weight="600">
  GO DIGITAL • GROW FASTER • REACH MORE CUSTOMERS
</text>
</svg>
